<?xml version="1.0" encoding="UTF-8"?>
<!DOCTYPE svg PUBLIC "-//W3C//DTD SVG 1.1//EN" "http://www.w3.org/Graphics/SVG/1.1/DTD/svg11.dtd">
<!-- Creator: CorelDRAW 2020 (64-Bit Evaluation Version) -->
<svg xmlns="http://www.w3.org/2000/svg" xml:space="preserve" width="17.2312mm" height="17.2312mm" version="1.1" style="shape-rendering:geometricPrecision; text-rendering:geometricPrecision; image-rendering:optimizeQuality; fill-rule:evenodd; clip-rule:evenodd"
viewBox="0 0 514.48 514.48"
 xmlns:xlink="http://www.w3.org/1999/xlink"
 xmlns:xodm="http://www.corel.com/coreldraw/odm/2003">
 <defs>
  <style type="text/css">
   <![CDATA[
    .fil0 {fill:#E42326}
    .fil1 {fill:#FEFEFE;fill-rule:nonzero}
   ]]>
  </style>
 </defs>
 <g id="Layer_x0020_1">
  <metadata id="CorelCorpID_0Corel-Layer"/>
  <circle class="fil0" cx="257.24" cy="257.24" r="257.24"/>
  <path class="fil1" d="M87.05 294.9c-7.22,0 -13.4,-0.13 -18.56,-0.38 -5.16,-0.25 -9.51,-0.7 -13.04,-1.35 -3.54,-0.65 -6.38,-1.51 -8.55,-2.6 -2.16,-1.08 -3.82,-2.44 -4.98,-4.06 -1.15,-1.62 -1.91,-3.54 -2.27,-5.74 -0.36,-2.2 -0.54,-4.78 -0.54,-7.74l0 -2.71 26.08 0 0 1.52c0,1.08 0.21,1.99 0.65,2.71 0.43,0.72 1.35,1.3 2.76,1.73 1.41,0.43 3.44,0.74 6.11,0.92 2.67,0.18 6.2,0.27 10.61,0.27l3.03 0c4.91,0 8.75,-0.09 11.52,-0.27 2.78,-0.18 4.87,-0.49 6.28,-0.92 1.41,-0.43 2.27,-1.03 2.6,-1.79 0.33,-0.76 0.49,-1.68 0.49,-2.76l0 -0.65c0,-1.08 -0.2,-1.98 -0.59,-2.71 -0.4,-0.72 -1.35,-1.32 -2.87,-1.79 -1.51,-0.47 -3.77,-0.79 -6.76,-0.97 -2.99,-0.18 -7.09,-0.27 -12.29,-0.27 -7.07,0 -13.17,-0.14 -18.29,-0.43 -5.12,-0.29 -9.42,-0.76 -12.88,-1.41 -3.46,-0.65 -6.24,-1.53 -8.34,-2.65 -2.09,-1.12 -3.7,-2.53 -4.82,-4.22 -1.12,-1.7 -1.86,-3.7 -2.22,-6.01 -0.36,-2.31 -0.54,-5.01 -0.54,-8.12l0 -1.3c0,-4.11 0.52,-7.56 1.57,-10.33 1.05,-2.78 3.08,-5 6.11,-6.66 3.03,-1.66 7.25,-2.85 12.66,-3.57 5.41,-0.72 12.44,-1.08 21.1,-1.08l4.55 0c6.93,0 12.88,0.14 17.86,0.43 4.98,0.29 9.18,0.74 12.61,1.35 3.43,0.61 6.17,1.46 8.23,2.54 2.06,1.08 3.64,2.42 4.76,4 1.12,1.59 1.86,3.46 2.22,5.63 0.36,2.16 0.54,4.65 0.54,7.47l0 1.73 -25.22 0 0 -0.87c0,-0.94 -0.14,-1.73 -0.43,-2.38 -0.29,-0.65 -1.01,-1.19 -2.16,-1.62 -1.16,-0.43 -2.92,-0.76 -5.3,-0.97 -2.38,-0.22 -5.63,-0.33 -9.74,-0.33l-3.35 0c-4.83,0 -8.64,0.07 -11.42,0.21 -2.78,0.15 -4.87,0.43 -6.28,0.87 -1.41,0.43 -2.29,0.99 -2.65,1.68 -0.36,0.69 -0.54,1.57 -0.54,2.65l0 0.65c0,1.08 0.18,1.95 0.54,2.6 0.36,0.65 1.33,1.17 2.92,1.57 1.59,0.4 4,0.67 7.25,0.81 3.25,0.15 7.76,0.22 13.53,0.22 9.74,0 17.57,0.34 23.49,1.03 5.91,0.69 10.5,1.88 13.74,3.57 3.25,1.7 5.4,3.99 6.44,6.87 1.05,2.89 1.57,6.57 1.57,11.04l0 1.52c0,4.33 -0.53,7.97 -1.57,10.93 -1.05,2.96 -3.14,5.32 -6.28,7.09 -3.14,1.77 -7.56,3.05 -13.26,3.84 -5.7,0.79 -13.2,1.19 -22.51,1.19l-3.57 0zm165.92 -0.87l-27.71 0 -6.6 -12.77 -44.92 0 -6.49 12.77 -27.38 0 41.67 -73.6 29.33 0 42.1 73.6zm-43.08 -29.76l-13.64 -26.52 -0.43 0 -13.42 26.52 27.49 0zm150.22 29.76l-25.98 0 0 -27.81 -45.57 0 0 27.81 -25.97 0 0 -73.6 25.97 0 0 26.19 45.57 0 0 -26.19 25.98 0 0 73.6zm65.69 0.87c-9.52,0 -17.33,-0.43 -23.43,-1.3 -6.1,-0.87 -10.89,-2.36 -14.4,-4.49 -3.5,-2.13 -5.91,-5.02 -7.25,-8.66 -1.33,-3.65 -2,-8.24 -2,-13.8l0 -46.21 25.98 0 0 39.39c0,3.18 0.21,5.76 0.65,7.74 0.43,1.99 1.39,3.52 2.87,4.6 1.48,1.08 3.64,1.82 6.49,2.22 2.85,0.4 6.69,0.59 11.52,0.59l1.73 0c4.76,0 8.57,-0.2 11.42,-0.59 2.85,-0.4 5.01,-1.14 6.49,-2.22 1.48,-1.08 2.43,-2.62 2.87,-4.6 0.43,-1.98 0.65,-4.56 0.65,-7.74l0 -39.39 25.98 0 0 46.21c0,5.56 -0.63,10.15 -1.9,13.8 -1.26,3.64 -3.62,6.53 -7.09,8.66 -3.46,2.13 -8.26,3.62 -14.39,4.49 -6.13,0.87 -14.04,1.3 -23.7,1.3l-2.49 0z"/>
 </g>
</svg>
